<svg id="container" width="100%" xmlns="http://www.w3.org/2000/svg" style="max-width: 857.7756958007812px;"
    viewBox="-399.8878479003906 -295.91188049316406 857.7756958007812 722.8237915039062"
    role="graphics-document document" aria-roledescription="architecture">
    <style>
        #container {
            font-family: "trebuchet ms", verdana, arial, sans-serif;
            font-size: 16px;
            fill: #fff;
        }

        @keyframes edge-animation-frame {
            from {
                stroke-dashoffset: 0;
            }
        }

        @keyframes dash {
            to {
                stroke-dashoffset: 0;
            }
        }

        #container .edge-animation-slow {
            stroke-dasharray: 9, 5 !important;
            stroke-dashoffset: 900;
            animation: dash 50s linear infinite;
            stroke-linecap: round;
        }

        #container .edge-animation-fast {
            stroke-dasharray: 9, 5 !important;
            stroke-dashoffset: 900;
            animation: dash 20s linear infinite;
            stroke-linecap: round;
        }

        #container .error-icon {
            fill: #552222;
        }

        #container .error-text {
            fill: #552222;
            stroke: #552222;
        }

        #container .edge-thickness-normal {
            stroke-width: 1px;
        }

        #container .edge-thickness-thick {
            stroke-width: 3.5px;
        }

        #container .edge-pattern-solid {
            stroke-dasharray: 0;
        }

        #container .edge-thickness-invisible {
            stroke-width: 0;
            fill: none;
        }

        #container .edge-pattern-dashed {
            stroke-dasharray: 3;
        }

        #container .edge-pattern-dotted {
            stroke-dasharray: 2;
        }

        #container .marker {
            fill: #555555;
            stroke: #555555;
        }

        #container .marker.cross {
            stroke: #555555;
        }

        #container svg {
            font-family: "trebuchet ms", verdana, arial, sans-serif;
            font-size: 16px;
        }

        #container p {
            margin: 0;
        }

        #container .edge {
            stroke-width: 3;
            stroke: #555555;
            fill: none;
        }

        #container .arrow {
            fill: #555555;
        }

        #container .node-bkg {
            fill: none;
            stroke: hsl(240, 60%, 86.2745098039%);
            stroke-width: 2px;
            stroke-dasharray: 8;
        }

        #container .node-icon-text {
            display: flex;
            align-items: center;
        }

        #container .node-icon-text&gt;

        div {
            color: #fff;
            margin: 1px;
            height: fit-content;
            text-align: center;
            overflow: hidden;
            display: -webkit-box;
            -webkit-box-orient: vertical;
        }

        #container :root {
            --mermaid-font-family: "trebuchet ms", verdana, arial, sans-serif;
        }
    </style>
    <g></g>
    <g class="architecture-edges">
        <g>
            <path
                d="M -207.38784141692554,245.91188803633938 L -81.16168172709104,245.91188803633938 L45.06447796274347,245.91188803633938"
                class="edge" id="L_discord_gateway_gateway_0"></path>
            <polygon points="0,6.666666666666667 13.333333333333334,0 13.333333333333334,13.333333333333334"
                transform="translate(-209.38784141692554,239.24522136967272)" class="arrow"></polygon>
            <polygon points="13.333333333333334,6.666666666666667 0,13.333333333333334 0,0"
                transform="translate(33.73114462941013,239.24522136967272)" class="arrow"></polygon>
            <g dy="1em" alignment-baseline="middle" dominant-baseline="middle" text-anchor="middle"
                transform="translate(-81.16168172709104, 245.91188803633938)">
                <g>
                    <rect class="background" style="stroke: none"></rect><text y="-10.1" style="">
                        <tspan class="text-outer-tspan" x="0" y="-0.1em" dy="1.1em">
                            <tspan font-style="normal" class="text-inner-tspan" font-weight="normal">Websocket</tspan>
                        </tspan>
                    </text>
                </g>
            </g>
        </g>
        <g>
            <path
                d="M -207.38784141692554,-8.433736661423893 L -81.16168172709104,-8.433736661423893 L45.06447796274347,-8.433736661423893"
                class="edge" id="L_discord_interaction_worker_0"></path>
            <polygon points="0,6.666666666666667 13.333333333333334,0 13.333333333333334,13.333333333333334"
                transform="translate(-209.38784141692554,-15.100403328090561)" class="arrow"></polygon>
            <polygon points="13.333333333333334,6.666666666666667 0,13.333333333333334 0,0"
                transform="translate(33.73114462941013,-15.100403328090561)" class="arrow"></polygon>
        </g>
        <g>
            <path
                d="M 85.06447796274347,205.91188803633938 L 85.06447796274347,118.73907568745774 L85.06447796274347,31.566263338576107"
                class="edge" id="L_gateway_worker_0"></path>
            <polygon points="6.666666666666667,0 13.333333333333334,13.333333333333334 0,13.333333333333334"
                transform="translate(78.3978112960768,29.566263338576107)" class="arrow"></polygon>
        </g>
        <g>
            <path
                d="M 45.06447796274347,245.91188803633938 L 276.3878414169255,245.91188803633935 L276.3878414169255,31.566263338576107"
                class="edge" id="L_gateway_gateway_queue_0"></path>
            <polygon points="6.666666666666667,0 13.333333333333334,13.333333333333334 0,13.333333333333334"
                transform="translate(269.7211747502588,29.566263338576107)" class="arrow"></polygon>
        </g>
        <g>
            <path
                d="M 236.38784141692548,-8.433736661423893 L 180.72615968983447,-8.433736661423893 L125.06447796274347,-8.433736661423893"
                class="edge" id="L_gateway_queue_worker_0"></path>
            <polygon points="0,6.666666666666667 13.333333333333334,0 13.333333333333334,13.333333333333334"
                transform="translate(123.06447796274347,-15.100403328090561)" class="arrow"></polygon>
        </g>
        <g>
            <path
                d="M 236.38784141692548,-131.9118880363394 L 85.06447796274347,-131.9118880363394 L85.06447796274347,-48.43373666142389"
                class="edge" id="L_tasks_queue_worker_0"></path>
            <polygon points="13.333333333333334,6.666666666666667 0,13.333333333333334 0,0"
                transform="translate(225.05450808359214,-138.57855470300606)" class="arrow"></polygon>
            <polygon points="0,0 13.333333333333334,0 6.666666666666667,13.333333333333334"
                transform="translate(78.3978112960768,-59.76706999475723)" class="arrow"></polygon>
        </g>
    </g>
    <g class="architecture-services">
        <g id="service-discord_gateway" class="architecture-service"
            transform="translate(-287.38784141692554,205.91188803633938)">
            <g dy="1em" alignment-baseline="middle" dominant-baseline="middle" text-anchor="middle"
                transform="translate(40, 80)">
                <g>
                    <rect class="background" style="stroke: none"></rect><text y="-10.1" style="">
                        <tspan class="text-outer-tspan" x="0" y="-0.1em" dy="1.1em">
                            <tspan font-style="normal" class="text-inner-tspan" font-weight="normal">Discord</tspan>
                            <tspan font-style="normal" class="text-inner-tspan" font-weight="normal"> Gateway</tspan>
                        </tspan>
                    </text>
                </g>
            </g>
            <g>
                <g><svg xmlns="http://www.w3.org/2000/svg" width="80" height="80" viewBox="0 0 80 80">
                        <g>
                            <rect width="80" height="80" style="fill: #087ebf; stroke-width: 0px;"></rect>
                            <circle cx="40" cy="40" r="22.5"
                                style="fill: none; stroke: #fff; stroke-miterlimit: 10; stroke-width: 2px;"></circle>
                            <line x1="40" y1="17.5" x2="40" y2="62.5"
                                style="fill: none; stroke: #fff; stroke-miterlimit: 10; stroke-width: 2px;"></line>
                            <line x1="17.5" y1="40" x2="62.5" y2="40"
                                style="fill: none; stroke: #fff; stroke-miterlimit: 10; stroke-width: 2px;"></line>
                            <path d="m39.99,17.51c-15.28,11.1-15.28,33.88,0,44.98"
                                style="fill: none; stroke: #fff; stroke-miterlimit: 10; stroke-width: 2px;"></path>
                            <path d="m40.01,17.51c15.28,11.1,15.28,33.88,0,44.98"
                                style="fill: none; stroke: #fff; stroke-miterlimit: 10; stroke-width: 2px;"></path>
                            <line x1="19.75" y1="30.1" x2="60.25" y2="30.1"
                                style="fill: none; stroke: #fff; stroke-miterlimit: 10; stroke-width: 2px;"></line>
                            <line x1="19.75" y1="49.9" x2="60.25" y2="49.9"
                                style="fill: none; stroke: #fff; stroke-miterlimit: 10; stroke-width: 2px;"></line>
                        </g>
                    </svg></g>
            </g>
        </g>
        <g id="service-discord_interaction" class="architecture-service"
            transform="translate(-287.38784141692554,-48.43373666142389)">
            <g dy="1em" alignment-baseline="middle" dominant-baseline="middle" text-anchor="middle"
                transform="translate(40, 80)">
                <g>
                    <rect class="background" style="stroke: none"></rect><text y="-10.1" style="">
                        <tspan class="text-outer-tspan" x="0" y="-0.1em" dy="1.1em">
                            <tspan font-style="normal" class="text-inner-tspan" font-weight="normal">Discord</tspan>
                        </tspan>
                        <tspan class="text-outer-tspan" x="0" y="1em" dy="1.1em">
                            <tspan font-style="normal" class="text-inner-tspan" font-weight="normal">Interaction</tspan>
                        </tspan>
                    </text>
                </g>
            </g>
            <g>
                <g><svg xmlns="http://www.w3.org/2000/svg" width="80" height="80" viewBox="0 0 80 80">
                        <g>
                            <rect width="80" height="80" style="fill: #087ebf; stroke-width: 0px;"></rect>
                            <circle cx="40" cy="40" r="22.5"
                                style="fill: none; stroke: #fff; stroke-miterlimit: 10; stroke-width: 2px;"></circle>
                            <line x1="40" y1="17.5" x2="40" y2="62.5"
                                style="fill: none; stroke: #fff; stroke-miterlimit: 10; stroke-width: 2px;"></line>
                            <line x1="17.5" y1="40" x2="62.5" y2="40"
                                style="fill: none; stroke: #fff; stroke-miterlimit: 10; stroke-width: 2px;"></line>
                            <path d="m39.99,17.51c-15.28,11.1-15.28,33.88,0,44.98"
                                style="fill: none; stroke: #fff; stroke-miterlimit: 10; stroke-width: 2px;"></path>
                            <path d="m40.01,17.51c15.28,11.1,15.28,33.88,0,44.98"
                                style="fill: none; stroke: #fff; stroke-miterlimit: 10; stroke-width: 2px;"></path>
                            <line x1="19.75" y1="30.1" x2="60.25" y2="30.1"
                                style="fill: none; stroke: #fff; stroke-miterlimit: 10; stroke-width: 2px;"></line>
                            <line x1="19.75" y1="49.9" x2="60.25" y2="49.9"
                                style="fill: none; stroke: #fff; stroke-miterlimit: 10; stroke-width: 2px;"></line>
                        </g>
                    </svg></g>
            </g>
        </g>
        <g id="service-worker" class="architecture-service"
            transform="translate(45.064477962743474,-48.43373666142389)">
            <g dy="1em" alignment-baseline="middle" dominant-baseline="middle" text-anchor="middle"
                transform="translate(40, 80)">
                <g>
                    <rect class="background" style="stroke: none"></rect><text y="-10.1" style="">
                        <tspan class="text-outer-tspan" x="0" y="-0.1em" dy="1.1em">
                            <tspan font-style="normal" class="text-inner-tspan" font-weight="normal">Worker</tspan>
                        </tspan>
                    </text>
                </g>
            </g>
            <g>
                <g><svg xmlns="http://www.w3.org/2000/svg" width="80" height="80" viewBox="0 0 80 80">
                        <g>
                            <rect width="80" height="80" style="fill: #087ebf; stroke-width: 0px;"></rect>
                            <rect x="17.5" y="17.5" width="45" height="45" rx="2" ry="2"
                                style="fill: none; stroke: #fff; stroke-miterlimit: 10; stroke-width: 2px;"></rect>
                            <line x1="17.5" y1="32.5" x2="62.5" y2="32.5"
                                style="fill: none; stroke: #fff; stroke-miterlimit: 10; stroke-width: 2px;"></line>
                            <line x1="17.5" y1="47.5" x2="62.5" y2="47.5"
                                style="fill: none; stroke: #fff; stroke-miterlimit: 10; stroke-width: 2px;"></line>
                            <g>
                                <path
                                    d="m56.25,25c0,.27-.45.5-1,.5h-10.5c-.55,0-1-.23-1-.5s.45-.5,1-.5h10.5c.55,0,1,.23,1,.5Z"
                                    style="fill: #fff; stroke-width: 0px;"></path>
                                <path
                                    d="m56.25,25c0,.27-.45.5-1,.5h-10.5c-.55,0-1-.23-1-.5s.45-.5,1-.5h10.5c.55,0,1,.23,1,.5Z"
                                    style="fill: none; stroke: #fff; stroke-miterlimit: 10;"></path>
                            </g>
                            <g>
                                <path
                                    d="m56.25,40c0,.27-.45.5-1,.5h-10.5c-.55,0-1-.23-1-.5s.45-.5,1-.5h10.5c.55,0,1,.23,1,.5Z"
                                    style="fill: #fff; stroke-width: 0px;"></path>
                                <path
                                    d="m56.25,40c0,.27-.45.5-1,.5h-10.5c-.55,0-1-.23-1-.5s.45-.5,1-.5h10.5c.55,0,1,.23,1,.5Z"
                                    style="fill: none; stroke: #fff; stroke-miterlimit: 10;"></path>
                            </g>
                            <g>
                                <path
                                    d="m56.25,55c0,.27-.45.5-1,.5h-10.5c-.55,0-1-.23-1-.5s.45-.5,1-.5h10.5c.55,0,1,.23,1,.5Z"
                                    style="fill: #fff; stroke-width: 0px;"></path>
                                <path
                                    d="m56.25,55c0,.27-.45.5-1,.5h-10.5c-.55,0-1-.23-1-.5s.45-.5,1-.5h10.5c.55,0,1,.23,1,.5Z"
                                    style="fill: none; stroke: #fff; stroke-miterlimit: 10;"></path>
                            </g>
                            <g>
                                <circle cx="32.5" cy="25" r=".75"
                                    style="fill: #fff; stroke: #fff; stroke-miterlimit: 10;"></circle>
                                <circle cx="27.5" cy="25" r=".75"
                                    style="fill: #fff; stroke: #fff; stroke-miterlimit: 10;"></circle>
                                <circle cx="22.5" cy="25" r=".75"
                                    style="fill: #fff; stroke: #fff; stroke-miterlimit: 10;"></circle>
                            </g>
                            <g>
                                <circle cx="32.5" cy="40" r=".75"
                                    style="fill: #fff; stroke: #fff; stroke-miterlimit: 10;"></circle>
                                <circle cx="27.5" cy="40" r=".75"
                                    style="fill: #fff; stroke: #fff; stroke-miterlimit: 10;"></circle>
                                <circle cx="22.5" cy="40" r=".75"
                                    style="fill: #fff; stroke: #fff; stroke-miterlimit: 10;"></circle>
                            </g>
                            <g>
                                <circle cx="32.5" cy="55" r=".75"
                                    style="fill: #fff; stroke: #fff; stroke-miterlimit: 10;"></circle>
                                <circle cx="27.5" cy="55" r=".75"
                                    style="fill: #fff; stroke: #fff; stroke-miterlimit: 10;"></circle>
                                <circle cx="22.5" cy="55" r=".75"
                                    style="fill: #fff; stroke: #fff; stroke-miterlimit: 10;"></circle>
                            </g>
                        </g>
                    </svg></g>
            </g>
        </g>
        <g id="service-tasks_queue" class="architecture-service"
            transform="translate(236.38784141692548,-171.9118880363394)">
            <g dy="1em" alignment-baseline="middle" dominant-baseline="middle" text-anchor="middle"
                transform="translate(40, 80)">
                <g>
                    <rect class="background" style="stroke: none"></rect><text y="-10.1" style="">
                        <tspan class="text-outer-tspan" x="0" y="-0.1em" dy="1.1em">
                            <tspan font-style="normal" class="text-inner-tspan" font-weight="normal">Tasks</tspan>
                            <tspan font-style="normal" class="text-inner-tspan" font-weight="normal"> Queue</tspan>
                        </tspan>
                    </text>
                </g>
            </g>
            <g>
                <g><svg xmlns="http://www.w3.org/2000/svg" width="80" height="80" viewBox="0 0 80 80">
                        <g>
                            <rect width="80" height="80" style="fill: #087ebf; stroke-width: 0px;"></rect>
                            <rect x="20" y="15" width="40" height="50" rx="1" ry="1"
                                style="fill: none; stroke: #fff; stroke-miterlimit: 10; stroke-width: 2px;"></rect>
                            <ellipse cx="24" cy="19.17" rx=".8" ry=".83"
                                style="fill: none; stroke: #fff; stroke-miterlimit: 10; stroke-width: 2px;"></ellipse>
                            <ellipse cx="56" cy="19.17" rx=".8" ry=".83"
                                style="fill: none; stroke: #fff; stroke-miterlimit: 10; stroke-width: 2px;"></ellipse>
                            <ellipse cx="24" cy="60.83" rx=".8" ry=".83"
                                style="fill: none; stroke: #fff; stroke-miterlimit: 10; stroke-width: 2px;"></ellipse>
                            <ellipse cx="56" cy="60.83" rx=".8" ry=".83"
                                style="fill: none; stroke: #fff; stroke-miterlimit: 10; stroke-width: 2px;"></ellipse>
                            <ellipse cx="40" cy="33.75" rx="14" ry="14.58"
                                style="fill: none; stroke: #fff; stroke-miterlimit: 10; stroke-width: 2px;"></ellipse>
                            <ellipse cx="40" cy="33.75" rx="4" ry="4.17"
                                style="fill: #fff; stroke: #fff; stroke-miterlimit: 10; stroke-width: 2px;"></ellipse>
                            <path
                                d="m37.51,42.52l-4.83,13.22c-.26.71-1.1,1.02-1.76.64l-4.18-2.42c-.66-.38-.81-1.26-.33-1.84l9.01-10.8c.88-1.05,2.56-.08,2.09,1.2Z"
                                style="fill: #fff; stroke-width: 0px;"></path>
                        </g>
                    </svg></g>
            </g>
        </g>
        <g id="service-gateway_queue" class="architecture-service"
            transform="translate(236.38784141692548,-48.43373666142389)">
            <g dy="1em" alignment-baseline="middle" dominant-baseline="middle" text-anchor="middle"
                transform="translate(40, 80)">
                <g>
                    <rect class="background" style="stroke: none"></rect><text y="-10.1" style="">
                        <tspan class="text-outer-tspan" x="0" y="-0.1em" dy="1.1em">
                            <tspan font-style="normal" class="text-inner-tspan" font-weight="normal">Gateway</tspan>
                            <tspan font-style="normal" class="text-inner-tspan" font-weight="normal"> Queue</tspan>
                        </tspan>
                    </text>
                </g>
            </g>
            <g>
                <g><svg xmlns="http://www.w3.org/2000/svg" width="80" height="80" viewBox="0 0 80 80">
                        <g>
                            <rect width="80" height="80" style="fill: #087ebf; stroke-width: 0px;"></rect>
                            <rect x="20" y="15" width="40" height="50" rx="1" ry="1"
                                style="fill: none; stroke: #fff; stroke-miterlimit: 10; stroke-width: 2px;"></rect>
                            <ellipse cx="24" cy="19.17" rx=".8" ry=".83"
                                style="fill: none; stroke: #fff; stroke-miterlimit: 10; stroke-width: 2px;"></ellipse>
                            <ellipse cx="56" cy="19.17" rx=".8" ry=".83"
                                style="fill: none; stroke: #fff; stroke-miterlimit: 10; stroke-width: 2px;"></ellipse>
                            <ellipse cx="24" cy="60.83" rx=".8" ry=".83"
                                style="fill: none; stroke: #fff; stroke-miterlimit: 10; stroke-width: 2px;"></ellipse>
                            <ellipse cx="56" cy="60.83" rx=".8" ry=".83"
                                style="fill: none; stroke: #fff; stroke-miterlimit: 10; stroke-width: 2px;"></ellipse>
                            <ellipse cx="40" cy="33.75" rx="14" ry="14.58"
                                style="fill: none; stroke: #fff; stroke-miterlimit: 10; stroke-width: 2px;"></ellipse>
                            <ellipse cx="40" cy="33.75" rx="4" ry="4.17"
                                style="fill: #fff; stroke: #fff; stroke-miterlimit: 10; stroke-width: 2px;"></ellipse>
                            <path
                                d="m37.51,42.52l-4.83,13.22c-.26.71-1.1,1.02-1.76.64l-4.18-2.42c-.66-.38-.81-1.26-.33-1.84l9.01-10.8c.88-1.05,2.56-.08,2.09,1.2Z"
                                style="fill: #fff; stroke-width: 0px;"></path>
                        </g>
                    </svg></g>
            </g>
        </g>
        <g id="service-gateway" class="architecture-service"
            transform="translate(45.064477962743474,205.91188803633938)">
            <g dy="1em" alignment-baseline="middle" dominant-baseline="middle" text-anchor="middle"
                transform="translate(40, 80)">
                <g>
                    <rect class="background" style="stroke: none"></rect><text y="-10.1" style="">
                        <tspan class="text-outer-tspan" x="0" y="-0.1em" dy="1.1em">
                            <tspan font-style="normal" class="text-inner-tspan" font-weight="normal">WS</tspan>
                            <tspan font-style="normal" class="text-inner-tspan" font-weight="normal"> to</tspan>
                            <tspan font-style="normal" class="text-inner-tspan" font-weight="normal"> HTTP</tspan>
                        </tspan>
                    </text>
                </g>
            </g>
            <g>
                <g><svg xmlns="http://www.w3.org/2000/svg" width="80" height="80" viewBox="0 0 80 80">
                        <g>
                            <rect width="80" height="80" style="fill: #087ebf; stroke-width: 0px;"></rect>
                            <rect x="17.5" y="17.5" width="45" height="45" rx="2" ry="2"
                                style="fill: none; stroke: #fff; stroke-miterlimit: 10; stroke-width: 2px;"></rect>
                            <line x1="17.5" y1="32.5" x2="62.5" y2="32.5"
                                style="fill: none; stroke: #fff; stroke-miterlimit: 10; stroke-width: 2px;"></line>
                            <line x1="17.5" y1="47.5" x2="62.5" y2="47.5"
                                style="fill: none; stroke: #fff; stroke-miterlimit: 10; stroke-width: 2px;"></line>
                            <g>
                                <path
                                    d="m56.25,25c0,.27-.45.5-1,.5h-10.5c-.55,0-1-.23-1-.5s.45-.5,1-.5h10.5c.55,0,1,.23,1,.5Z"
                                    style="fill: #fff; stroke-width: 0px;"></path>
                                <path
                                    d="m56.25,25c0,.27-.45.5-1,.5h-10.5c-.55,0-1-.23-1-.5s.45-.5,1-.5h10.5c.55,0,1,.23,1,.5Z"
                                    style="fill: none; stroke: #fff; stroke-miterlimit: 10;"></path>
                            </g>
                            <g>
                                <path
                                    d="m56.25,40c0,.27-.45.5-1,.5h-10.5c-.55,0-1-.23-1-.5s.45-.5,1-.5h10.5c.55,0,1,.23,1,.5Z"
                                    style="fill: #fff; stroke-width: 0px;"></path>
                                <path
                                    d="m56.25,40c0,.27-.45.5-1,.5h-10.5c-.55,0-1-.23-1-.5s.45-.5,1-.5h10.5c.55,0,1,.23,1,.5Z"
                                    style="fill: none; stroke: #fff; stroke-miterlimit: 10;"></path>
                            </g>
                            <g>
                                <path
                                    d="m56.25,55c0,.27-.45.5-1,.5h-10.5c-.55,0-1-.23-1-.5s.45-.5,1-.5h10.5c.55,0,1,.23,1,.5Z"
                                    style="fill: #fff; stroke-width: 0px;"></path>
                                <path
                                    d="m56.25,55c0,.27-.45.5-1,.5h-10.5c-.55,0-1-.23-1-.5s.45-.5,1-.5h10.5c.55,0,1,.23,1,.5Z"
                                    style="fill: none; stroke: #fff; stroke-miterlimit: 10;"></path>
                            </g>
                            <g>
                                <circle cx="32.5" cy="25" r=".75"
                                    style="fill: #fff; stroke: #fff; stroke-miterlimit: 10;"></circle>
                                <circle cx="27.5" cy="25" r=".75"
                                    style="fill: #fff; stroke: #fff; stroke-miterlimit: 10;"></circle>
                                <circle cx="22.5" cy="25" r=".75"
                                    style="fill: #fff; stroke: #fff; stroke-miterlimit: 10;"></circle>
                            </g>
                            <g>
                                <circle cx="32.5" cy="40" r=".75"
                                    style="fill: #fff; stroke: #fff; stroke-miterlimit: 10;"></circle>
                                <circle cx="27.5" cy="40" r=".75"
                                    style="fill: #fff; stroke: #fff; stroke-miterlimit: 10;"></circle>
                                <circle cx="22.5" cy="40" r=".75"
                                    style="fill: #fff; stroke: #fff; stroke-miterlimit: 10;"></circle>
                            </g>
                            <g>
                                <circle cx="32.5" cy="55" r=".75"
                                    style="fill: #fff; stroke: #fff; stroke-miterlimit: 10;"></circle>
                                <circle cx="27.5" cy="55" r=".75"
                                    style="fill: #fff; stroke: #fff; stroke-miterlimit: 10;"></circle>
                                <circle cx="22.5" cy="55" r=".75"
                                    style="fill: #fff; stroke: #fff; stroke-miterlimit: 10;"></circle>
                            </g>
                        </g>
                    </svg></g>
            </g>
        </g>
    </g>
    <g class="architecture-groups">
        <rect id="group-ext" x="-359.88784141692554" y="-90.9337366614239" width="225" height="436.3456246977633"
            class="node-bkg"></rect>
        <g>
            <g transform="translate(-358.88784141692554, -89.9337366614239)">
                <g><svg xmlns="http://www.w3.org/2000/svg" width="30" height="30" viewBox="0 0 80 80">
                        <g>
                            <rect width="80" height="80" style="fill: #087ebf; stroke-width: 0px;"></rect>
                            <path
                                d="m65,47.5c0,2.76-2.24,5-5,5H20c-2.76,0-5-2.24-5-5,0-1.87,1.03-3.51,2.56-4.36-.04-.21-.06-.42-.06-.64,0-2.6,2.48-4.74,5.65-4.97,1.65-4.51,6.34-7.76,11.85-7.76.86,0,1.69.08,2.5.23,2.09-1.57,4.69-2.5,7.5-2.5,6.1,0,11.19,4.38,12.28,10.17,2.14.56,3.72,2.51,3.72,4.83,0,.03,0,.07-.01.1,2.29.46,4.01,2.48,4.01,4.9Z"
                                style="fill: none; stroke: #fff; stroke-miterlimit: 10; stroke-width: 2px;"></path>
                        </g>
                    </svg></g>
            </g>
            <g dy="1em" alignment-baseline="middle" dominant-baseline="start" text-anchor="start"
                transform="translate(-325.88784141692554, -83.9337366614239)">
                <g>
                    <rect class="background" style="stroke: none"></rect><text y="-10.1" style="">
                        <tspan class="text-outer-tspan" x="0" y="-0.1em" dy="1.1em">
                            <tspan font-style="normal" class="text-inner-tspan" font-weight="normal">Discord</tspan>
                            <tspan font-style="normal" class="text-inner-tspan" font-weight="normal"> API</tspan>
                        </tspan>
                    </text>
                </g>
            </g>
        </g>
        <rect id="group-ggsbot" x="-40.93552203725653" y="-255.9118880363394" width="458.823363454182"
            height="642.8237760726788" class="node-bkg"></rect>
        <g>
            <g transform="translate(-39.93552203725653, -254.9118880363394)">
                <g><svg xmlns="http://www.w3.org/2000/svg" width="30" height="30" viewBox="0 0 80 80">
                        <g>
                            <rect width="80" height="80" style="fill: #087ebf; stroke-width: 0px;"></rect>
                            <circle cx="40" cy="40" r="22.5"
                                style="fill: none; stroke: #fff; stroke-miterlimit: 10; stroke-width: 2px;"></circle>
                            <line x1="40" y1="17.5" x2="40" y2="62.5"
                                style="fill: none; stroke: #fff; stroke-miterlimit: 10; stroke-width: 2px;"></line>
                            <line x1="17.5" y1="40" x2="62.5" y2="40"
                                style="fill: none; stroke: #fff; stroke-miterlimit: 10; stroke-width: 2px;"></line>
                            <path d="m39.99,17.51c-15.28,11.1-15.28,33.88,0,44.98"
                                style="fill: none; stroke: #fff; stroke-miterlimit: 10; stroke-width: 2px;"></path>
                            <path d="m40.01,17.51c15.28,11.1,15.28,33.88,0,44.98"
                                style="fill: none; stroke: #fff; stroke-miterlimit: 10; stroke-width: 2px;"></path>
                            <line x1="19.75" y1="30.1" x2="60.25" y2="30.1"
                                style="fill: none; stroke: #fff; stroke-miterlimit: 10; stroke-width: 2px;"></line>
                            <line x1="19.75" y1="49.9" x2="60.25" y2="49.9"
                                style="fill: none; stroke: #fff; stroke-miterlimit: 10; stroke-width: 2px;"></line>
                        </g>
                    </svg></g>
            </g>
            <g dy="1em" alignment-baseline="middle" dominant-baseline="start" text-anchor="start"
                transform="translate(-6.935522037256533, -248.9118880363394)">
                <g>
                    <rect class="background" style="stroke: none"></rect><text y="-10.1" style="">
                        <tspan class="text-outer-tspan" x="0" y="-0.1em" dy="1.1em">
                            <tspan font-style="normal" class="text-inner-tspan" font-weight="normal">GGsBot</tspan>
                            <tspan font-style="normal" class="text-inner-tspan" font-weight="normal"> Discord</tspan>
                            <tspan font-style="normal" class="text-inner-tspan" font-weight="normal"> Bot</tspan>
                        </tspan>
                    </text>
                </g>
            </g>
        </g>
        <rect id="group-edge" x="2.5644779627434673" y="-214.4118880363394" width="373.823363454182"
            height="305.4781513749155" class="node-bkg"></rect>
        <g>
            <g transform="translate(3.5644779627434673, -213.4118880363394)">
                <g><svg xmlns="http://www.w3.org/2000/svg" width="30" height="30" viewBox="0 0 80 80">
                        <g>
                            <rect width="80" height="80" style="fill: #087ebf; stroke-width: 0px;"></rect>
                            <path
                                d="m65,47.5c0,2.76-2.24,5-5,5H20c-2.76,0-5-2.24-5-5,0-1.87,1.03-3.51,2.56-4.36-.04-.21-.06-.42-.06-.64,0-2.6,2.48-4.74,5.65-4.97,1.65-4.51,6.34-7.76,11.85-7.76.86,0,1.69.08,2.5.23,2.09-1.57,4.69-2.5,7.5-2.5,6.1,0,11.19,4.38,12.28,10.17,2.14.56,3.72,2.51,3.72,4.83,0,.03,0,.07-.01.1,2.29.46,4.01,2.48,4.01,4.9Z"
                                style="fill: none; stroke: #fff; stroke-miterlimit: 10; stroke-width: 2px;"></path>
                        </g>
                    </svg></g>
            </g>
            <g dy="1em" alignment-baseline="middle" dominant-baseline="start" text-anchor="start"
                transform="translate(36.56447796274347, -207.4118880363394)">
                <g>
                    <rect class="background" style="stroke: none"></rect><text y="-10.1" style="">
                        <tspan class="text-outer-tspan" x="0" y="-0.1em" dy="1.1em">
                            <tspan font-style="normal" class="text-inner-tspan" font-weight="normal">Serverless</tspan>
                            <tspan font-style="normal" class="text-inner-tspan" font-weight="normal"> Cloudflare</tspan>
                            <tspan font-style="normal" class="text-inner-tspan" font-weight="normal"> Network</tspan>
                        </tspan>
                    </text>
                </g>
            </g>
        </g>
        <rect id="group-server" x="0.5644779627434673" y="163.4118880363394" width="169" height="182" class="node-bkg">
        </rect>
        <g>
            <g transform="translate(1.5644779627434673, 164.4118880363394)">
                <g><svg xmlns="http://www.w3.org/2000/svg" width="30" height="30" viewBox="0 0 80 80">
                        <g>
                            <rect width="80" height="80" style="fill: #087ebf; stroke-width: 0px;"></rect>
                            <rect x="17.5" y="17.5" width="45" height="45" rx="2" ry="2"
                                style="fill: none; stroke: #fff; stroke-miterlimit: 10; stroke-width: 2px;"></rect>
                            <line x1="17.5" y1="32.5" x2="62.5" y2="32.5"
                                style="fill: none; stroke: #fff; stroke-miterlimit: 10; stroke-width: 2px;"></line>
                            <line x1="17.5" y1="47.5" x2="62.5" y2="47.5"
                                style="fill: none; stroke: #fff; stroke-miterlimit: 10; stroke-width: 2px;"></line>
                            <g>
                                <path
                                    d="m56.25,25c0,.27-.45.5-1,.5h-10.5c-.55,0-1-.23-1-.5s.45-.5,1-.5h10.5c.55,0,1,.23,1,.5Z"
                                    style="fill: #fff; stroke-width: 0px;"></path>
                                <path
                                    d="m56.25,25c0,.27-.45.5-1,.5h-10.5c-.55,0-1-.23-1-.5s.45-.5,1-.5h10.5c.55,0,1,.23,1,.5Z"
                                    style="fill: none; stroke: #fff; stroke-miterlimit: 10;"></path>
                            </g>
                            <g>
                                <path
                                    d="m56.25,40c0,.27-.45.5-1,.5h-10.5c-.55,0-1-.23-1-.5s.45-.5,1-.5h10.5c.55,0,1,.23,1,.5Z"
                                    style="fill: #fff; stroke-width: 0px;"></path>
                                <path
                                    d="m56.25,40c0,.27-.45.5-1,.5h-10.5c-.55,0-1-.23-1-.5s.45-.5,1-.5h10.5c.55,0,1,.23,1,.5Z"
                                    style="fill: none; stroke: #fff; stroke-miterlimit: 10;"></path>
                            </g>
                            <g>
                                <path
                                    d="m56.25,55c0,.27-.45.5-1,.5h-10.5c-.55,0-1-.23-1-.5s.45-.5,1-.5h10.5c.55,0,1,.23,1,.5Z"
                                    style="fill: #fff; stroke-width: 0px;"></path>
                                <path
                                    d="m56.25,55c0,.27-.45.5-1,.5h-10.5c-.55,0-1-.23-1-.5s.45-.5,1-.5h10.5c.55,0,1,.23,1,.5Z"
                                    style="fill: none; stroke: #fff; stroke-miterlimit: 10;"></path>
                            </g>
                            <g>
                                <circle cx="32.5" cy="25" r=".75"
                                    style="fill: #fff; stroke: #fff; stroke-miterlimit: 10;"></circle>
                                <circle cx="27.5" cy="25" r=".75"
                                    style="fill: #fff; stroke: #fff; stroke-miterlimit: 10;"></circle>
                                <circle cx="22.5" cy="25" r=".75"
                                    style="fill: #fff; stroke: #fff; stroke-miterlimit: 10;"></circle>
                            </g>
                            <g>
                                <circle cx="32.5" cy="40" r=".75"
                                    style="fill: #fff; stroke: #fff; stroke-miterlimit: 10;"></circle>
                                <circle cx="27.5" cy="40" r=".75"
                                    style="fill: #fff; stroke: #fff; stroke-miterlimit: 10;"></circle>
                                <circle cx="22.5" cy="40" r=".75"
                                    style="fill: #fff; stroke: #fff; stroke-miterlimit: 10;"></circle>
                            </g>
                            <g>
                                <circle cx="32.5" cy="55" r=".75"
                                    style="fill: #fff; stroke: #fff; stroke-miterlimit: 10;"></circle>
                                <circle cx="27.5" cy="55" r=".75"
                                    style="fill: #fff; stroke: #fff; stroke-miterlimit: 10;"></circle>
                                <circle cx="22.5" cy="55" r=".75"
                                    style="fill: #fff; stroke: #fff; stroke-miterlimit: 10;"></circle>
                            </g>
                        </g>
                    </svg></g>
            </g>
            <g dy="1em" alignment-baseline="middle" dominant-baseline="start" text-anchor="start"
                transform="translate(34.56447796274347, 170.4118880363394)">
                <g>
                    <rect class="background" style="stroke: none"></rect><text y="-10.1" style="">
                        <tspan class="text-outer-tspan" x="0" y="-0.1em" dy="1.1em">
                            <tspan font-style="normal" class="text-inner-tspan" font-weight="normal">Gateway</tspan>
                            <tspan font-style="normal" class="text-inner-tspan" font-weight="normal"> Server</tspan>
                        </tspan>
                    </text>
                </g>
            </g>
        </g>
    </g>
</svg>